<mxfile host="app.diagrams.net" modified="2023-08-31T16:04:00.425Z" agent="Mozilla/5.0 (X11; Linux x86_64) AppleWebKit/537.36 (KHTML, like Gecko) Chrome/115.0.0.0 Safari/537.36 OPR/101.0.0.0" etag="C7eDa4Pn50nFM0O2pjRM" version="21.7.1" type="github">
  <diagram name="Page-1" id="TCFlb0Z1mi6UPEvj-5_t">
    <mxGraphModel dx="1057" dy="602" grid="1" gridSize="10" guides="1" tooltips="1" connect="1" arrows="1" fold="1" page="1" pageScale="1" pageWidth="850" pageHeight="1100" math="0" shadow="0">
      <root>
        <mxCell id="0" />
        <mxCell id="1" parent="0" />
        <mxCell id="XsSXVbV6uCLgdwSrOo79-2" value="" style="rounded=0;whiteSpace=wrap;html=1;fillColor=#dae8fc;strokeColor=#6c8ebf;" vertex="1" parent="1">
          <mxGeometry x="80" y="80" width="350" height="360" as="geometry" />
        </mxCell>
        <mxCell id="XsSXVbV6uCLgdwSrOo79-5" value="&lt;h1&gt;Worker VM&lt;/h1&gt;" style="text;html=1;strokeColor=none;fillColor=none;spacing=5;spacingTop=-20;whiteSpace=wrap;overflow=hidden;rounded=0;" vertex="1" parent="1">
          <mxGeometry x="90" y="90" width="160" height="40" as="geometry" />
        </mxCell>
        <mxCell id="XsSXVbV6uCLgdwSrOo79-13" value="" style="rounded=0;whiteSpace=wrap;html=1;fillColor=#dae8fc;strokeColor=#6c8ebf;" vertex="1" parent="1">
          <mxGeometry x="610" y="80" width="370" height="380" as="geometry" />
        </mxCell>
        <mxCell id="XsSXVbV6uCLgdwSrOo79-14" value="&lt;h1&gt;Task Provider&lt;/h1&gt;" style="text;html=1;strokeColor=none;fillColor=none;spacing=5;spacingTop=-20;whiteSpace=wrap;overflow=hidden;rounded=0;" vertex="1" parent="1">
          <mxGeometry x="620" y="90" width="350" height="40" as="geometry" />
        </mxCell>
        <mxCell id="XsSXVbV6uCLgdwSrOo79-15" value="" style="endArrow=none;dashed=1;html=1;rounded=0;" edge="1" parent="1">
          <mxGeometry width="50" height="50" relative="1" as="geometry">
            <mxPoint x="520" y="560" as="sourcePoint" />
            <mxPoint x="520" as="targetPoint" />
          </mxGeometry>
        </mxCell>
        <mxCell id="XsSXVbV6uCLgdwSrOo79-17" value="&amp;nbsp;Auth provider&lt;br&gt;(openid,&amp;nbsp;LDAP etc)" style="rounded=1;whiteSpace=wrap;html=1;fillColor=#e1d5e7;strokeColor=#9673a6;" vertex="1" parent="1">
          <mxGeometry x="650" y="150" width="120" height="60" as="geometry" />
        </mxCell>
        <mxCell id="XsSXVbV6uCLgdwSrOo79-18" value="" style="group;fillColor=#f5f5f5;fontColor=#333333;strokeColor=#666666;" vertex="1" connectable="0" parent="1">
          <mxGeometry x="90" y="140" width="330" height="290" as="geometry" />
        </mxCell>
        <mxCell id="XsSXVbV6uCLgdwSrOo79-1" value="" style="rounded=0;whiteSpace=wrap;html=1;fillColor=#f5f5f5;strokeColor=#666666;fontColor=#333333;" vertex="1" parent="XsSXVbV6uCLgdwSrOo79-18">
          <mxGeometry width="330" height="290" as="geometry" />
        </mxCell>
        <mxCell id="XsSXVbV6uCLgdwSrOo79-3" value="Worker Core" style="rounded=1;whiteSpace=wrap;html=1;fillColor=#ffe6cc;strokeColor=#d79b00;" vertex="1" parent="XsSXVbV6uCLgdwSrOo79-18">
          <mxGeometry x="105" y="30" width="120" height="60" as="geometry" />
        </mxCell>
        <mxCell id="XsSXVbV6uCLgdwSrOo79-6" value="Docker" style="text;html=1;strokeColor=none;fillColor=none;align=center;verticalAlign=middle;whiteSpace=wrap;rounded=0;" vertex="1" parent="XsSXVbV6uCLgdwSrOo79-18">
          <mxGeometry width="60" height="30" as="geometry" />
        </mxCell>
        <mxCell id="XsSXVbV6uCLgdwSrOo79-7" value="JS Validator" style="rounded=1;whiteSpace=wrap;html=1;fillColor=#ffe6cc;strokeColor=#d79b00;" vertex="1" parent="XsSXVbV6uCLgdwSrOo79-18">
          <mxGeometry x="10" y="220" width="120" height="60" as="geometry" />
        </mxCell>
        <mxCell id="XsSXVbV6uCLgdwSrOo79-8" value="K8s Validator" style="rounded=1;whiteSpace=wrap;html=1;fillColor=#ffe6cc;strokeColor=#d79b00;" vertex="1" parent="XsSXVbV6uCLgdwSrOo79-18">
          <mxGeometry x="200" y="220" width="120" height="60" as="geometry" />
        </mxCell>
        <mxCell id="XsSXVbV6uCLgdwSrOo79-9" value="Kafka" style="rounded=1;whiteSpace=wrap;html=1;fillColor=#ffe6cc;strokeColor=#d79b00;" vertex="1" parent="XsSXVbV6uCLgdwSrOo79-18">
          <mxGeometry x="105" y="120" width="120" height="60" as="geometry" />
        </mxCell>
        <mxCell id="XsSXVbV6uCLgdwSrOo79-10" style="edgeStyle=orthogonalEdgeStyle;rounded=0;orthogonalLoop=1;jettySize=auto;html=1;exitX=0.5;exitY=1;exitDx=0;exitDy=0;entryX=0.5;entryY=0;entryDx=0;entryDy=0;" edge="1" parent="XsSXVbV6uCLgdwSrOo79-18" source="XsSXVbV6uCLgdwSrOo79-3" target="XsSXVbV6uCLgdwSrOo79-9">
          <mxGeometry relative="1" as="geometry" />
        </mxCell>
        <mxCell id="XsSXVbV6uCLgdwSrOo79-11" style="edgeStyle=orthogonalEdgeStyle;rounded=0;orthogonalLoop=1;jettySize=auto;html=1;exitX=0.5;exitY=1;exitDx=0;exitDy=0;" edge="1" parent="XsSXVbV6uCLgdwSrOo79-18" source="XsSXVbV6uCLgdwSrOo79-9" target="XsSXVbV6uCLgdwSrOo79-8">
          <mxGeometry relative="1" as="geometry" />
        </mxCell>
        <mxCell id="XsSXVbV6uCLgdwSrOo79-12" style="edgeStyle=orthogonalEdgeStyle;rounded=0;orthogonalLoop=1;jettySize=auto;html=1;exitX=0.5;exitY=1;exitDx=0;exitDy=0;startArrow=classic;startFill=1;" edge="1" parent="XsSXVbV6uCLgdwSrOo79-18" source="XsSXVbV6uCLgdwSrOo79-9" target="XsSXVbV6uCLgdwSrOo79-7">
          <mxGeometry relative="1" as="geometry" />
        </mxCell>
        <mxCell id="XsSXVbV6uCLgdwSrOo79-21" value="DB" style="shape=datastore;whiteSpace=wrap;html=1;fillColor=#e1d5e7;strokeColor=#9673a6;" vertex="1" parent="1">
          <mxGeometry x="835" y="310" width="110" height="60" as="geometry" />
        </mxCell>
        <mxCell id="XsSXVbV6uCLgdwSrOo79-36" value="" style="group;fillColor=#f5f5f5;fontColor=#333333;strokeColor=#666666;" vertex="1" connectable="0" parent="1">
          <mxGeometry x="630" y="240" width="160" height="200" as="geometry" />
        </mxCell>
        <mxCell id="XsSXVbV6uCLgdwSrOo79-23" value="" style="rounded=0;whiteSpace=wrap;html=1;fillColor=#f5f5f5;strokeColor=#666666;fontColor=#333333;" vertex="1" parent="XsSXVbV6uCLgdwSrOo79-36">
          <mxGeometry width="160" height="200" as="geometry" />
        </mxCell>
        <mxCell id="XsSXVbV6uCLgdwSrOo79-24" value="Frontend" style="rounded=1;whiteSpace=wrap;html=1;fillColor=#ffe6cc;strokeColor=#d79b00;" vertex="1" parent="XsSXVbV6uCLgdwSrOo79-36">
          <mxGeometry x="20" y="40" width="120" height="60" as="geometry" />
        </mxCell>
        <mxCell id="XsSXVbV6uCLgdwSrOo79-25" value="Orchestration" style="text;html=1;strokeColor=none;fillColor=none;align=center;verticalAlign=middle;whiteSpace=wrap;rounded=0;" vertex="1" parent="XsSXVbV6uCLgdwSrOo79-36">
          <mxGeometry width="100" height="30" as="geometry" />
        </mxCell>
        <mxCell id="XsSXVbV6uCLgdwSrOo79-32" value="Backend" style="rounded=1;whiteSpace=wrap;html=1;fillColor=#ffe6cc;strokeColor=#d79b00;" vertex="1" parent="XsSXVbV6uCLgdwSrOo79-36">
          <mxGeometry x="20" y="130" width="120" height="60" as="geometry" />
        </mxCell>
        <mxCell id="XsSXVbV6uCLgdwSrOo79-33" style="edgeStyle=orthogonalEdgeStyle;rounded=0;orthogonalLoop=1;jettySize=auto;html=1;entryX=0.5;entryY=0;entryDx=0;entryDy=0;" edge="1" parent="XsSXVbV6uCLgdwSrOo79-36" source="XsSXVbV6uCLgdwSrOo79-24" target="XsSXVbV6uCLgdwSrOo79-32">
          <mxGeometry relative="1" as="geometry" />
        </mxCell>
        <mxCell id="XsSXVbV6uCLgdwSrOo79-37" value="Image Registry" style="rounded=1;whiteSpace=wrap;html=1;fillColor=#e1d5e7;strokeColor=#9673a6;" vertex="1" parent="1">
          <mxGeometry x="825" y="150" width="120" height="60" as="geometry" />
        </mxCell>
        <mxCell id="XsSXVbV6uCLgdwSrOo79-38" style="edgeStyle=orthogonalEdgeStyle;rounded=0;orthogonalLoop=1;jettySize=auto;html=1;exitX=0.5;exitY=1;exitDx=0;exitDy=0;" edge="1" parent="1" source="XsSXVbV6uCLgdwSrOo79-13" target="XsSXVbV6uCLgdwSrOo79-13">
          <mxGeometry relative="1" as="geometry" />
        </mxCell>
        <mxCell id="XsSXVbV6uCLgdwSrOo79-39" style="edgeStyle=orthogonalEdgeStyle;rounded=0;orthogonalLoop=1;jettySize=auto;html=1;exitX=1;exitY=0.5;exitDx=0;exitDy=0;" edge="1" parent="1" source="XsSXVbV6uCLgdwSrOo79-32" target="XsSXVbV6uCLgdwSrOo79-21">
          <mxGeometry relative="1" as="geometry">
            <Array as="points">
              <mxPoint x="810" y="400" />
              <mxPoint x="810" y="340" />
            </Array>
          </mxGeometry>
        </mxCell>
        <mxCell id="XsSXVbV6uCLgdwSrOo79-40" value="&lt;font style=&quot;font-size: 14px;&quot;&gt;&lt;b&gt;User&lt;br&gt;(Student)&lt;/b&gt;&lt;/font&gt;" style="text;html=1;strokeColor=none;fillColor=none;align=center;verticalAlign=middle;whiteSpace=wrap;rounded=0;" vertex="1" parent="1">
          <mxGeometry x="225" y="20" width="60" height="30" as="geometry" />
        </mxCell>
        <mxCell id="XsSXVbV6uCLgdwSrOo79-41" value="&lt;font style=&quot;font-size: 14px;&quot;&gt;&lt;b&gt;Remote (Cloud)&lt;/b&gt;&lt;/font&gt;" style="text;html=1;strokeColor=none;fillColor=none;align=center;verticalAlign=middle;whiteSpace=wrap;rounded=0;" vertex="1" parent="1">
          <mxGeometry x="765" y="20" width="60" height="30" as="geometry" />
        </mxCell>
        <mxCell id="XsSXVbV6uCLgdwSrOo79-42" style="edgeStyle=orthogonalEdgeStyle;rounded=0;orthogonalLoop=1;jettySize=auto;html=1;exitX=1;exitY=0.5;exitDx=0;exitDy=0;entryX=0;entryY=0.5;entryDx=0;entryDy=0;" edge="1" parent="1" source="XsSXVbV6uCLgdwSrOo79-3" target="XsSXVbV6uCLgdwSrOo79-32">
          <mxGeometry relative="1" as="geometry">
            <Array as="points">
              <mxPoint x="480" y="200" />
              <mxPoint x="480" y="400" />
            </Array>
          </mxGeometry>
        </mxCell>
        <mxCell id="XsSXVbV6uCLgdwSrOo79-43" value="API" style="edgeLabel;html=1;align=center;verticalAlign=middle;resizable=0;points=[];" vertex="1" connectable="0" parent="XsSXVbV6uCLgdwSrOo79-42">
          <mxGeometry x="-0.0053" y="-2" relative="1" as="geometry">
            <mxPoint as="offset" />
          </mxGeometry>
        </mxCell>
      </root>
    </mxGraphModel>
  </diagram>
</mxfile>
